<mxfile host="app.diagrams.net" agent="Mozilla/5.0 (Windows NT 10.0; Win64; x64) AppleWebKit/537.36 (KHTML, like Gecko) Chrome/131.0.0.0 Safari/537.36" version="26.0.5">
  <diagram name="페이지-1" id="dp5-OIFI8ZVzYsF5K9ma">
    <mxGraphModel dx="1062" dy="641" grid="1" gridSize="10" guides="1" tooltips="1" connect="1" arrows="1" fold="1" page="1" pageScale="1" pageWidth="827" pageHeight="1169" math="0" shadow="0">
      <root>
        <mxCell id="0" />
        <mxCell id="1" parent="0" />
        <mxCell id="vFPKtFuDcdFf70qFe73K-1" value="De-bonding 발생" style="whiteSpace=wrap;strokeWidth=2;" vertex="1" parent="1">
          <mxGeometry x="371" y="20" width="178" height="54" as="geometry" />
        </mxCell>
        <mxCell id="vFPKtFuDcdFf70qFe73K-2" value="호선에서 시료 채취 및 분석 요청" style="whiteSpace=wrap;strokeWidth=2;" vertex="1" parent="1">
          <mxGeometry x="330" y="124" width="260" height="78" as="geometry" />
        </mxCell>
        <mxCell id="vFPKtFuDcdFf70qFe73K-3" value="FT-IR 분석" style="whiteSpace=wrap;strokeWidth=2;" vertex="1" parent="1">
          <mxGeometry x="84" y="252" width="133" height="54" as="geometry" />
        </mxCell>
        <mxCell id="vFPKtFuDcdFf70qFe73K-4" value="EDS 분석" style="whiteSpace=wrap;strokeWidth=2;" vertex="1" parent="1">
          <mxGeometry x="554" y="1064" width="123" height="54" as="geometry" />
        </mxCell>
        <mxCell id="vFPKtFuDcdFf70qFe73K-5" value="peeled-off FSB과 RSB sample 분석" style="whiteSpace=wrap;strokeWidth=2;" vertex="1" parent="1">
          <mxGeometry x="20" y="356" width="260" height="78" as="geometry" />
        </mxCell>
        <mxCell id="vFPKtFuDcdFf70qFe73K-6" value="동일한 스펙트럼 확인" style="whiteSpace=wrap;strokeWidth=2;" vertex="1" parent="1">
          <mxGeometry x="43" y="484" width="214" height="54" as="geometry" />
        </mxCell>
        <mxCell id="vFPKtFuDcdFf70qFe73K-7" value="미상의 오염원이 동일하게 존재 추정" style="whiteSpace=wrap;strokeWidth=2;" vertex="1" parent="1">
          <mxGeometry x="20" y="588" width="260" height="78" as="geometry" />
        </mxCell>
        <mxCell id="vFPKtFuDcdFf70qFe73K-8" value="ABM 작업 당시 문제 확인" style="whiteSpace=wrap;strokeWidth=2;" vertex="1" parent="1">
          <mxGeometry x="31" y="716" width="237" height="54" as="geometry" />
        </mxCell>
        <mxCell id="vFPKtFuDcdFf70qFe73K-9" value="디스펜서 오류/호스 꺾임 등 추정" style="whiteSpace=wrap;strokeWidth=2;" vertex="1" parent="1">
          <mxGeometry x="20" y="820" width="260" height="78" as="geometry" />
        </mxCell>
        <mxCell id="vFPKtFuDcdFf70qFe73K-10" value="주제/경화제만 토출 가능성" style="whiteSpace=wrap;strokeWidth=2;" vertex="1" parent="1">
          <mxGeometry x="23" y="948" width="254" height="54" as="geometry" />
        </mxCell>
        <mxCell id="vFPKtFuDcdFf70qFe73K-11" value="PU15+RSB 실험으로 FT-IR 피크 비교" style="whiteSpace=wrap;strokeWidth=2;" vertex="1" parent="1">
          <mxGeometry x="20" y="1052" width="260" height="78" as="geometry" />
        </mxCell>
        <mxCell id="vFPKtFuDcdFf70qFe73K-12" value="PU15 피크 유사성 확인" style="whiteSpace=wrap;strokeWidth=2;" vertex="1" parent="1">
          <mxGeometry x="39" y="1180" width="223" height="54" as="geometry" />
        </mxCell>
        <mxCell id="vFPKtFuDcdFf70qFe73K-13" value="RSB의 경우 주제로 인한 피크 강하게 검출" style="whiteSpace=wrap;strokeWidth=2;" vertex="1" parent="1">
          <mxGeometry x="20" y="1284" width="260" height="78" as="geometry" />
        </mxCell>
        <mxCell id="vFPKtFuDcdFf70qFe73K-14" value="PU15에 대한 EDS 결과" style="whiteSpace=wrap;strokeWidth=2;" vertex="1" parent="1">
          <mxGeometry x="352" y="1180" width="217" height="54" as="geometry" />
        </mxCell>
        <mxCell id="vFPKtFuDcdFf70qFe73K-15" value="peeled-off FSB와 동일한 Ca 함량 확인" style="whiteSpace=wrap;strokeWidth=2;" vertex="1" parent="1">
          <mxGeometry x="330" y="1284" width="260" height="78" as="geometry" />
        </mxCell>
        <mxCell id="vFPKtFuDcdFf70qFe73K-16" value="RSB에 대한 EDS 결과" style="whiteSpace=wrap;strokeWidth=2;" vertex="1" parent="1">
          <mxGeometry x="667" y="1180" width="207" height="54" as="geometry" />
        </mxCell>
        <mxCell id="vFPKtFuDcdFf70qFe73K-17" value="RSB 및 PU15에서도 Ca 함량 동일 확인" style="whiteSpace=wrap;strokeWidth=2;" vertex="1" parent="1">
          <mxGeometry x="640" y="1284" width="260" height="78" as="geometry" />
        </mxCell>
        <mxCell id="vFPKtFuDcdFf70qFe73K-18" value="결론 도출" style="whiteSpace=wrap;strokeWidth=2;" vertex="1" parent="1">
          <mxGeometry x="396" y="1412" width="129" height="54" as="geometry" />
        </mxCell>
        <mxCell id="vFPKtFuDcdFf70qFe73K-19" value="RSB 오염 원인: 주제 추정" style="whiteSpace=wrap;strokeWidth=2;" vertex="1" parent="1">
          <mxGeometry x="340" y="1516" width="239" height="54" as="geometry" />
        </mxCell>
        <mxCell id="vFPKtFuDcdFf70qFe73K-20" value="FT-IR 및 EDS 분석 결과 일치" style="whiteSpace=wrap;strokeWidth=2;" vertex="1" parent="1">
          <mxGeometry x="331" y="1620" width="258" height="54" as="geometry" />
        </mxCell>
        <mxCell id="vFPKtFuDcdFf70qFe73K-21" value="오염원은 주제임을 확인" style="whiteSpace=wrap;strokeWidth=2;" vertex="1" parent="1">
          <mxGeometry x="345" y="1724" width="230" height="54" as="geometry" />
        </mxCell>
        <mxCell id="vFPKtFuDcdFf70qFe73K-22" value="" style="curved=1;startArrow=none;endArrow=block;exitX=0.5;exitY=1;entryX=0.5;entryY=0;rounded=0;" edge="1" parent="1" source="vFPKtFuDcdFf70qFe73K-1" target="vFPKtFuDcdFf70qFe73K-2">
          <mxGeometry relative="1" as="geometry">
            <Array as="points" />
          </mxGeometry>
        </mxCell>
        <mxCell id="vFPKtFuDcdFf70qFe73K-23" value="" style="curved=1;startArrow=none;endArrow=block;exitX=0;exitY=0.84;entryX=0.5;entryY=0;rounded=0;" edge="1" parent="1" source="vFPKtFuDcdFf70qFe73K-2" target="vFPKtFuDcdFf70qFe73K-3">
          <mxGeometry relative="1" as="geometry">
            <Array as="points">
              <mxPoint x="150" y="227" />
            </Array>
          </mxGeometry>
        </mxCell>
        <mxCell id="vFPKtFuDcdFf70qFe73K-24" value="" style="curved=1;startArrow=none;endArrow=block;exitX=0.86;exitY=1;entryX=0.5;entryY=0;rounded=0;" edge="1" parent="1" source="vFPKtFuDcdFf70qFe73K-2" target="vFPKtFuDcdFf70qFe73K-4">
          <mxGeometry relative="1" as="geometry">
            <Array as="points">
              <mxPoint x="615" y="227" />
            </Array>
          </mxGeometry>
        </mxCell>
        <mxCell id="vFPKtFuDcdFf70qFe73K-25" value="" style="curved=1;startArrow=none;endArrow=block;exitX=0.5;exitY=1;entryX=0.5;entryY=0;rounded=0;" edge="1" parent="1" source="vFPKtFuDcdFf70qFe73K-3" target="vFPKtFuDcdFf70qFe73K-5">
          <mxGeometry relative="1" as="geometry">
            <Array as="points" />
          </mxGeometry>
        </mxCell>
        <mxCell id="vFPKtFuDcdFf70qFe73K-26" value="" style="curved=1;startArrow=none;endArrow=block;exitX=0.5;exitY=1;entryX=0.5;entryY=0;rounded=0;" edge="1" parent="1" source="vFPKtFuDcdFf70qFe73K-5" target="vFPKtFuDcdFf70qFe73K-6">
          <mxGeometry relative="1" as="geometry">
            <Array as="points" />
          </mxGeometry>
        </mxCell>
        <mxCell id="vFPKtFuDcdFf70qFe73K-27" value="" style="curved=1;startArrow=none;endArrow=block;exitX=0.5;exitY=1;entryX=0.5;entryY=0;rounded=0;" edge="1" parent="1" source="vFPKtFuDcdFf70qFe73K-6" target="vFPKtFuDcdFf70qFe73K-7">
          <mxGeometry relative="1" as="geometry">
            <Array as="points" />
          </mxGeometry>
        </mxCell>
        <mxCell id="vFPKtFuDcdFf70qFe73K-28" value="" style="curved=1;startArrow=none;endArrow=block;exitX=0.5;exitY=1;entryX=0.5;entryY=0;rounded=0;" edge="1" parent="1" source="vFPKtFuDcdFf70qFe73K-7" target="vFPKtFuDcdFf70qFe73K-8">
          <mxGeometry relative="1" as="geometry">
            <Array as="points" />
          </mxGeometry>
        </mxCell>
        <mxCell id="vFPKtFuDcdFf70qFe73K-29" value="" style="curved=1;startArrow=none;endArrow=block;exitX=0.5;exitY=1;entryX=0.5;entryY=0;rounded=0;" edge="1" parent="1" source="vFPKtFuDcdFf70qFe73K-8" target="vFPKtFuDcdFf70qFe73K-9">
          <mxGeometry relative="1" as="geometry">
            <Array as="points" />
          </mxGeometry>
        </mxCell>
        <mxCell id="vFPKtFuDcdFf70qFe73K-30" value="" style="curved=1;startArrow=none;endArrow=block;exitX=0.5;exitY=1;entryX=0.5;entryY=0;rounded=0;" edge="1" parent="1" source="vFPKtFuDcdFf70qFe73K-9" target="vFPKtFuDcdFf70qFe73K-10">
          <mxGeometry relative="1" as="geometry">
            <Array as="points" />
          </mxGeometry>
        </mxCell>
        <mxCell id="vFPKtFuDcdFf70qFe73K-31" value="" style="curved=1;startArrow=none;endArrow=block;exitX=0.5;exitY=1;entryX=0.5;entryY=0;rounded=0;" edge="1" parent="1" source="vFPKtFuDcdFf70qFe73K-10" target="vFPKtFuDcdFf70qFe73K-11">
          <mxGeometry relative="1" as="geometry">
            <Array as="points" />
          </mxGeometry>
        </mxCell>
        <mxCell id="vFPKtFuDcdFf70qFe73K-32" value="" style="curved=1;startArrow=none;endArrow=block;exitX=0.5;exitY=1;entryX=0.5;entryY=0;rounded=0;" edge="1" parent="1" source="vFPKtFuDcdFf70qFe73K-11" target="vFPKtFuDcdFf70qFe73K-12">
          <mxGeometry relative="1" as="geometry">
            <Array as="points" />
          </mxGeometry>
        </mxCell>
        <mxCell id="vFPKtFuDcdFf70qFe73K-33" value="" style="curved=1;startArrow=none;endArrow=block;exitX=0.5;exitY=1;entryX=0.5;entryY=0;rounded=0;" edge="1" parent="1" source="vFPKtFuDcdFf70qFe73K-12" target="vFPKtFuDcdFf70qFe73K-13">
          <mxGeometry relative="1" as="geometry">
            <Array as="points" />
          </mxGeometry>
        </mxCell>
        <mxCell id="vFPKtFuDcdFf70qFe73K-34" value="" style="curved=1;startArrow=none;endArrow=block;exitX=0;exitY=0.97;entryX=0.5;entryY=0;rounded=0;" edge="1" parent="1" source="vFPKtFuDcdFf70qFe73K-4" target="vFPKtFuDcdFf70qFe73K-14">
          <mxGeometry relative="1" as="geometry">
            <Array as="points">
              <mxPoint x="460" y="1155" />
            </Array>
          </mxGeometry>
        </mxCell>
        <mxCell id="vFPKtFuDcdFf70qFe73K-35" value="" style="curved=1;startArrow=none;endArrow=block;exitX=0.5;exitY=1;entryX=0.5;entryY=0;rounded=0;" edge="1" parent="1" source="vFPKtFuDcdFf70qFe73K-14" target="vFPKtFuDcdFf70qFe73K-15">
          <mxGeometry relative="1" as="geometry">
            <Array as="points" />
          </mxGeometry>
        </mxCell>
        <mxCell id="vFPKtFuDcdFf70qFe73K-36" value="" style="curved=1;startArrow=none;endArrow=block;exitX=1;exitY=0.97;entryX=0.5;entryY=0;rounded=0;" edge="1" parent="1" source="vFPKtFuDcdFf70qFe73K-4" target="vFPKtFuDcdFf70qFe73K-16">
          <mxGeometry relative="1" as="geometry">
            <Array as="points">
              <mxPoint x="770" y="1155" />
            </Array>
          </mxGeometry>
        </mxCell>
        <mxCell id="vFPKtFuDcdFf70qFe73K-37" value="" style="curved=1;startArrow=none;endArrow=block;exitX=0.5;exitY=1;entryX=0.5;entryY=0;rounded=0;" edge="1" parent="1" source="vFPKtFuDcdFf70qFe73K-16" target="vFPKtFuDcdFf70qFe73K-17">
          <mxGeometry relative="1" as="geometry">
            <Array as="points" />
          </mxGeometry>
        </mxCell>
        <mxCell id="vFPKtFuDcdFf70qFe73K-38" value="" style="curved=1;startArrow=none;endArrow=block;exitX=0.5;exitY=1;entryX=0;entryY=0.3;rounded=0;" edge="1" parent="1" source="vFPKtFuDcdFf70qFe73K-13" target="vFPKtFuDcdFf70qFe73K-18">
          <mxGeometry relative="1" as="geometry">
            <Array as="points">
              <mxPoint x="150" y="1387" />
            </Array>
          </mxGeometry>
        </mxCell>
        <mxCell id="vFPKtFuDcdFf70qFe73K-39" value="" style="curved=1;startArrow=none;endArrow=block;exitX=0.5;exitY=1;entryX=1;entryY=0.3;rounded=0;" edge="1" parent="1" source="vFPKtFuDcdFf70qFe73K-17" target="vFPKtFuDcdFf70qFe73K-18">
          <mxGeometry relative="1" as="geometry">
            <Array as="points">
              <mxPoint x="770" y="1387" />
            </Array>
          </mxGeometry>
        </mxCell>
        <mxCell id="vFPKtFuDcdFf70qFe73K-40" value="" style="curved=1;startArrow=none;endArrow=block;exitX=0.5;exitY=1;entryX=0.5;entryY=0;rounded=0;" edge="1" parent="1" source="vFPKtFuDcdFf70qFe73K-18" target="vFPKtFuDcdFf70qFe73K-19">
          <mxGeometry relative="1" as="geometry">
            <Array as="points" />
          </mxGeometry>
        </mxCell>
        <mxCell id="vFPKtFuDcdFf70qFe73K-41" value="" style="curved=1;startArrow=none;endArrow=block;exitX=0.5;exitY=1;entryX=0.5;entryY=0;rounded=0;" edge="1" parent="1" source="vFPKtFuDcdFf70qFe73K-19" target="vFPKtFuDcdFf70qFe73K-20">
          <mxGeometry relative="1" as="geometry">
            <Array as="points" />
          </mxGeometry>
        </mxCell>
        <mxCell id="vFPKtFuDcdFf70qFe73K-42" value="" style="curved=1;startArrow=none;endArrow=block;exitX=0.5;exitY=1;entryX=0.5;entryY=0;rounded=0;" edge="1" parent="1" source="vFPKtFuDcdFf70qFe73K-20" target="vFPKtFuDcdFf70qFe73K-21">
          <mxGeometry relative="1" as="geometry">
            <Array as="points" />
          </mxGeometry>
        </mxCell>
      </root>
    </mxGraphModel>
  </diagram>
</mxfile>
